# xmcd
# 
# Track frame offsets:
#     150
#     23632
#     49496
#     68698
# 
# Disc length: 1249
# 
# Revision: 0
# Processed by: cddbd v1.5.2PL0 Copyright (c) Steve Scherf et al.
# Submitted via: fre:ac v1.0.17
# 
DISCID=2e04df04
DTITLE=Oakman - Waterscape
DYEAR=2021
DGENRE=Art Rock
TTITLE0=Water
TTITLE1=Mankind
TTITLE2=Can You Feel My Hand
TTITLE3=Hope
EXTD=
EXTT0=
EXTT1=
EXTT2=
EXTT3=
PLAYORDER=
